<svg xmlns="http://www.w3.org/2000/svg" viewBox="0 0 153.87 35.64"><defs><style>.cls-1{fill:#fff;}.cls-2{fill:#3f3e42;}.cls-3{fill:#3fa047;}.cls-4{fill:#4db348;}.cls-5{fill:#a1d291;}</style></defs><g id="background_rectangle" data-name="background rectangle"><rect class="cls-1" width="153.87" height="35.64" rx="9"/></g><g id="Logo"><path class="cls-2" d="M5.4,25.12c.06-1.35.09-4.44.09-6.3V17.41c0-1.65,0-2.58-.09-3.78L3,13.36v-1l4.08-1.8.45.3.36,3.48v4.53c0,1.86,0,4.95.09,6.3Zm4.68-1.05v1.05H3.18V24.07l3.3-.6h.6Zm6.81-8v2.76c0,1.92,0,4.95.09,6.3H14.4c.06-1.35.09-4.38.09-6.3V16.3c0-2.79-.72-3.69-2.52-3.69-1.47,0-2.64.6-4.32,2.07H7V13.33H8.55l-1.29.54a8,8,0,0,1,5.82-3.36C15.66,10.51,16.89,12.1,16.89,16.06Zm-.81,7.41,3,.6v1.05h-6.9V24.07l3.3-.6Zm9.81-7.74v3.09c0,1.92,0,4.95.09,6.3H23.4c.06-1.35.09-4.38.09-6.3V16.24c0-2.82-.78-3.63-2.55-3.63-1.35,0-2.61.54-4.29,2.07h-.72v-1h1.62l-1.38.24a7.35,7.35,0,0,1,5.91-3.36C24.48,10.51,25.89,12,25.89,15.73Zm-.81,7.74,3,.6v1.05h-6.9V24.07l3.3-.6Z"/><path class="cls-2" d="M48.87,25.12c.06-1.35.09-4.44.09-6.3V17.41c0-1.65,0-2.58-.09-3.78l-2.4-.27v-1l4.08-1.8.45.3.36,3.48v4.53c0,1.86,0,4.95.09,6.3Zm4.68-1.05v1.05h-6.9V24.07l3.3-.6h.6Zm6.93-8v2.76c0,1.92,0,4.95.09,6.3H58c.06-1.35.09-4.38.09-6.3V16.3c0-2.79-.72-3.69-2.52-3.69-1.5,0-2.73.6-4.44,2.07h-.63V13.33H52l-1.29.54a8.13,8.13,0,0,1,5.94-3.36C59.25,10.51,60.48,12.1,60.48,16.06Zm-.81,7.41,3,.6v1.05h-6.9V24.07l3.3-.6Z"/><path class="cls-2" d="M76.05,27.88c0-1.35-.84-2.37-3-2.37H69.48a11.86,11.86,0,0,1-1.5-.09v-.09C66.45,25,65.67,24.22,65.67,23c0-1.05.69-2.19,2.73-4l.66.45A3.55,3.55,0,0,0,67.77,22c0,.81.33,1.35,1.74,1.35h4c3.21,0,4.74,1.41,4.74,3.84s-2.46,5.16-7.32,5.16c-4.32,0-6.21-1.5-6.21-3.66,0-1.47.93-2.58,4-3.87l.15.18a4.32,4.32,0,0,0-1.68,3.24c0,2,1.53,2.76,3.87,2.76C74.28,31,76.05,29.59,76.05,27.88ZM70.77,10.51c3.06,0,5.34,1.62,5.34,4.92s-2.34,4.92-5.37,4.92-5.37-1.62-5.37-4.92S67.71,10.51,70.77,10.51Zm-3.06,5c0,2.19,1.08,3.69,2.94,3.69s3.12-1.59,3.12-3.81-1.08-3.63-3-3.63S67.71,13.27,67.71,15.46Zm10.2-5,.45.3v1.86H74v-.81Z"/><path class="cls-2" d="M80.13,18.07c0-5,3.39-7.56,6.84-7.56s6.84,2.58,6.84,7.56S90.36,25.51,87,25.51,80.13,23.05,80.13,18.07Zm11,0c0-4-1.53-6.21-4.14-6.21s-4.14,2.19-4.14,6.21S84.3,24.16,87,24.16,91.11,22.09,91.11,18.07Z"/><path class="cls-3" d="M95.3,6.26V5h8.48V6.26l-3.94.45h-.61Zm10.33,17.18c3.41,0,5.14-1.94,5.14-7.27V5h1.52V16.91c0,6.3-3.05,8.66-7.15,8.66-4.36,0-7.31-2.41-7.31-8V14.32c0-3.08,0-6.2-.09-9.28h3c-.09,3-.09,6.14-.09,9.28v2.37C100.66,21.82,102.58,23.44,105.63,23.44ZM111,6.7l-3.29-.44V5h7.2V6.26l-3.29.44Z"/><path class="cls-3" d="M118.18,25.12c0-1.35.09-4.44.09-6.3V17.39c0-1.65,0-2.56-.09-3.76l-2.37-.27V12.3L120,10.49l.46.3.35,3.47v4.56c0,1.86,0,4.95.09,6.3ZM123,24.05v1.07h-7V24.05l3.27-.6h.7Zm7-8v2.8c0,1.92,0,4.95.09,6.3h-2.72c.06-1.35.09-4.38.09-6.3V16.26c0-2.74-.71-3.63-2.47-3.63-1.48,0-2.72.61-4.4,2.08h-.65V13.33h1.56l-1.28.55a8,8,0,0,1,5.94-3.39C128.66,10.49,129.92,12.08,129.92,16Zm-.85,7.43,3,.6v1.07h-7V24.05l3.27-.6Z"/><path class="cls-3" d="M136.51,25.12c.06-1.35.09-4.44.09-6.3V17.41c0-1.65,0-2.58-.09-3.78l-2.43-.27V12.3l4.63-1.81.45.3-.09,4.07v4c0,1.86,0,4.95.09,6.3Zm4.72-1.07v1.07h-7V24.05l3.27-.6h.69Zm-5.44-18.8a2,2,0,1,1,2,1.91A1.9,1.9,0,0,1,135.79,5.25Z"/><path class="cls-3" d="M148.64,24a3.37,3.37,0,0,0,2-.83l.7.8a4.31,4.31,0,0,1-3.53,1.58,3.07,3.07,0,0,1-3.42-3.43c0-.74,0-1.38,0-2.55V12.47h-2.49V11.15l3.71-.48-1.23,1,1-4.89h1.82L147,12.05v9.7C147,23.3,147.63,24,148.64,24Zm2.41-13.08v1.59H145.7V10.88Z"/><path class="cls-2" d="M43,22.32a6.65,6.65,0,0,1-5.75,3.19c-3.45,0-6.84-2.46-6.84-7.44s3.39-7.56,6.84-7.56a6.69,6.69,0,0,1,4.5,1.73L40.34,13.6a3.52,3.52,0,0,0-3.14-1.74c-2.67,0-4.14,2.19-4.14,6.21s1.47,6.09,4.14,6.09a3.56,3.56,0,0,0,3.35-2Z"/><path class="cls-4" d="M35.81,16.64a5.1,5.1,0,0,1,1.82,2,20.14,20.14,0,0,1,7.52-8.51v2.68c-2.82,1.55-5.24,4.76-7.52,8.52a15.65,15.65,0,0,0-4-4.65Z"/><path class="cls-3" d="M41.58,23l-.26-.25h0a2.12,2.12,0,0,0,.07-.58,5.1,5.1,0,0,1-.76-3.35c.23-2.22,1.74-1.77,1.95-3.69a1.71,1.71,0,0,0,.17-.25,1.57,1.57,0,0,0,.29.48c.21.26,1.87,2.4,1.34,4.61-.32,1.35-1.05,2-2.61,2.36A1.41,1.41,0,0,0,41.58,23Z"/><path class="cls-4" d="M41.32,22.79l-.27-.08s.38-.45.34-.56a4.86,4.86,0,0,1-.76-3.29c.23-2.22,1.24-1.65,1.71-3.18.16-.51.37-.79.41-.76C43.33,19.42,42.5,20.17,41.32,22.79Z"/><path class="cls-5" d="M41.28,22.82a10.34,10.34,0,0,0,1.58-4.06,9.21,9.21,0,0,0,0-3.29,17.47,17.47,0,0,1-.14,3.3,12.37,12.37,0,0,1-1.4,4.05"/></g></svg>